<?xml version="1.0" encoding="utf-8"?> <svg xmlns="http://www.w3.org/2000/svg" xmlns:xlink="http://www.w3.org/1999/xlink" version="1.1" id="Слой_1" x="0px" y="0px" viewBox="0 0 1024 400" style="enable-background:new 0 0 1024 400;" xml:space="preserve"> <style type="text/css"> .st0{fill:#1B4695;} </style> <g> <g> <path class="st0" d="M191.29,100c-55.33,0-100.34,44.86-100.34,100c0,55.14,45.01,100,100.34,100c55.33,0,100.34-44.86,100.34-100 C291.63,144.86,246.62,100,191.29,100z M191.29,293.36c-51.66,0-93.68-41.88-93.68-93.36c0-51.48,42.02-93.37,93.68-93.37 c51.66,0,93.68,41.88,93.68,93.37C284.97,251.48,242.95,293.36,191.29,293.36z"></path> <g> <path class="st0" d="M172.13,240.72h17.22h2.21h30.59h7.4l-3.7-6.39l-26.11-45.07c-1.71-2.95-4.76-4.71-8.18-4.71 c-3.41,0-6.47,1.76-8.18,4.71l-26.11,45.07l-3.7,6.39l-0.62,1.07c-1.71,2.95-1.71,6.47,0,9.41c1.71,2.95,4.76,4.71,8.18,4.71 h60.86c3.41,0,6.47-1.76,8.18-4.71c0.31-0.54,0.55-1.11,0.75-1.68h-8.93h-30.43h-30.43c-1.58,0-2.36-1.06-2.63-1.51 c-0.26-0.46-0.79-1.66,0-3.02l2.47-4.26l3.7-6.39l24.26-41.87c0.79-1.36,2.1-1.51,2.63-1.51c0.52,0,1.84,0.15,2.63,1.51 l24.26,41.87h-42.62L172.13,240.72z"></path> <path class="st0" d="M143.26,236.01c0.32,0.55,0.7,1.04,1.1,1.5l4.41-7.61c0.02-0.04,0.02-0.07,0.04-0.11l40.12-69.26 c0.79-1.36,2.1-1.51,2.63-1.51c0.52,0,1.84,0.15,2.63,1.51l40.12,69.26c0.1,0.17,0.12,0.32,0.18,0.48l4.22,7.29 c0.43-0.48,0.82-0.99,1.16-1.56c1.71-2.95,1.71-6.47,0-9.41l-40.12-69.26c-1.71-2.95-4.76-4.7-8.18-4.7 c-3.41,0-6.47,1.76-8.18,4.7l-40.12,69.26C141.55,229.54,141.55,233.06,143.26,236.01z"></path> <path class="st0" d="M253.39,221.6l-43.2-74.63v-22.63h1.97v-6.39h-8.38v30.73l44.06,76.11c0.98,1.69,1.51,3.62,1.53,5.57 c0.03,1.95-0.46,3.89-1.4,5.61l-12.27,22.43c-0.99,1.8-2.44,3.31-4.21,4.35c-1.77,1.05-3.79,1.6-5.85,1.6h-68.17 c-2.06,0-4.08-0.55-5.85-1.6c-1.77-1.05-3.22-2.55-4.21-4.35l-12.27-22.43c-0.94-1.71-1.42-3.65-1.4-5.61 c0.02-1.95,0.55-3.88,1.53-5.57l44.48-76.11v-30.73h-8.36v6.39h1.95v22.63l-43.62,74.63c-1.53,2.64-2.36,5.64-2.39,8.69 c-0.04,3.04,0.71,6.07,2.18,8.74l12.27,22.43c1.54,2.81,3.81,5.16,6.57,6.79c2.76,1.63,5.91,2.5,9.12,2.5h68.17 c3.21,0,6.36-0.86,9.12-2.5c2.76-1.63,5.03-3.98,6.56-6.79l12.27-22.43c1.46-2.67,2.21-5.7,2.18-8.74 C255.74,227.24,254.91,224.24,253.39,221.6z"></path> </g> </g> <g> <path class="st0" d="M397.18,115.23V200h-8.87v-77.02h-53.83V200h-8.87v-84.77H397.18z"></path> <path class="st0" d="M480.9,122.98c6.16,5.16,9.24,12.27,9.24,21.31s-3.08,16.13-9.24,21.25c-6.16,5.13-14.66,7.69-25.52,7.69 h-22.84V200h-9v-84.77h31.84C466.24,115.23,474.74,117.81,480.9,122.98z M474.46,159.85c4.45-3.67,6.68-8.86,6.68-15.56 c0-6.86-2.23-12.13-6.68-15.8c-4.46-3.67-10.9-5.51-19.32-5.51h-22.6v42.38h22.6C463.57,165.36,470.01,163.53,474.46,159.85z"></path> <path class="st0" d="M521.91,195.1c-6.85-3.76-12.19-8.9-16.04-15.44c-3.85-6.54-5.77-13.89-5.77-22.04 c0-8.15,1.92-15.5,5.77-22.04c3.85-6.54,9.19-11.68,16.04-15.44c6.84-3.75,14.48-5.63,22.9-5.63c8.43,0,16.02,1.86,22.79,5.57 c6.76,3.71,12.09,8.86,15.98,15.44c3.89,6.58,5.83,13.95,5.83,22.1c0,8.16-1.94,15.52-5.83,22.1 c-3.89,6.58-9.22,11.73-15.98,15.44c-6.76,3.71-14.36,5.57-22.79,5.57C536.39,200.72,528.76,198.85,521.91,195.1z M563.04,188.19 c5.43-3.03,9.68-7.22,12.76-12.59c3.08-5.37,4.62-11.36,4.62-17.98c0-6.62-1.54-12.61-4.62-17.98 c-3.08-5.37-7.33-9.57-12.76-12.59c-5.43-3.03-11.5-4.54-18.23-4.54c-6.72,0-12.82,1.51-18.28,4.54 c-5.47,3.03-9.76,7.23-12.88,12.59c-3.12,5.37-4.68,11.37-4.68,17.98c0,6.62,1.56,12.62,4.68,17.98 c3.12,5.37,7.41,9.57,12.88,12.59c5.47,3.03,11.56,4.54,18.28,4.54C551.54,192.73,557.62,191.22,563.04,188.19z"></path> <path class="st0" d="M691.24,192.25v27.61h-8.38V200h-74.25v-84.77h8.87v77.02h51.4v-77.02h8.87v77.02H691.24z"></path> <path class="st0" d="M766.82,192.25V200h-60.15v-84.77h58.33v7.75h-49.33v30.15h43.99v7.63h-43.99v31.49H766.82z"></path> <path class="st0" d="M798.6,195.15c-6.76-3.71-12.07-8.86-15.92-15.44c-3.85-6.58-5.77-13.95-5.77-22.1 c0-8.15,1.92-15.52,5.77-22.1c3.85-6.58,9.17-11.73,15.98-15.44s14.42-5.57,22.84-5.57c6.32,0,12.15,1.05,17.5,3.15 c5.35,2.1,9.88,5.17,13.61,9.2l-5.71,5.69c-6.64-6.7-15.03-10.05-25.16-10.05c-6.72,0-12.84,1.53-18.35,4.6 c-5.51,3.07-9.82,7.27-12.94,12.59c-3.12,5.33-4.68,11.3-4.68,17.92c0,6.62,1.56,12.59,4.68,17.92 c3.12,5.33,7.43,9.53,12.94,12.59c5.51,3.07,11.62,4.6,18.35,4.6c10.21,0,18.59-3.39,25.16-10.17l5.71,5.69 c-3.73,4.04-8.28,7.13-13.67,9.26c-5.39,2.14-11.24,3.21-17.56,3.21C812.96,200.72,805.36,198.87,798.6,195.15z"></path> <path class="st0" d="M879.04,195.15c-6.76-3.71-12.07-8.86-15.92-15.44c-3.85-6.58-5.77-13.95-5.77-22.1 c0-8.15,1.92-15.52,5.77-22.1c3.85-6.58,9.17-11.73,15.98-15.44s14.42-5.57,22.84-5.57c6.32,0,12.15,1.05,17.5,3.15 c5.35,2.1,9.88,5.17,13.61,9.2l-5.71,5.69c-6.64-6.7-15.03-10.05-25.16-10.05c-6.72,0-12.84,1.53-18.35,4.6 c-5.51,3.07-9.82,7.27-12.94,12.59c-3.12,5.33-4.68,11.3-4.68,17.92c0,6.62,1.56,12.59,4.68,17.92 c3.12,5.33,7.43,9.53,12.94,12.59c5.51,3.07,11.62,4.6,18.35,4.6c10.21,0,18.59-3.39,25.16-10.17l5.71,5.69 c-3.73,4.04-8.28,7.13-13.67,9.26c-5.39,2.14-11.24,3.21-17.56,3.21C893.4,200.72,885.8,198.87,879.04,195.15z"></path> </g> <g> <path class="st0" d="M329.38,259.83v20.88h-2.35v-9.7h-7.98v9.7h-2.35v-20.88h2.35v8.95h7.98v-8.95H329.38z"></path> <path class="st0" d="M347.58,266.27v14.44h-2.03l-0.2-1.95c-0.96,1.39-2.55,2.43-4.83,2.43c-3.83,0-6.63-2.35-6.63-6.4 c0-4.02,2.59-6.24,7.18-6.24h4.15v-2.23c0-3.06-1.44-4.69-4.15-4.69c-2.39,0-4.03,1.35-4.19,3.66h-2.35 c0.16-3.58,2.75-5.93,6.63-5.93C345.15,259.36,347.58,262.02,347.58,266.27z M345.23,274.83v-4.1H341c-3.07,0-4.71,1.43-4.71,4.1 c0,2.74,1.87,4.05,4.59,4.05C343.55,278.88,345.23,277.22,345.23,274.83z"></path> <path class="st0" d="M365.19,259.83l-7.06,23.43c-0.92,3.1-2.12,5.05-4.99,5.05h-1.36v-2.31h1.04c1.83,0,2.43-1.39,2.95-3.1 l1.31-4.29l-6.7-18.78h2.51l5.23,15.23l4.59-15.23H365.19z"></path> <path class="st0" d="M380.2,259.83v20.88h-2.35v-7.88c-1.36,0.72-2.75,0.84-4.19,0.84c-3.51,0-6.47-2.71-6.47-8.2v-5.65h2.35v5.65 c0,4.22,1.88,5.89,4.31,5.89c1.36,0,2.67-0.08,3.99-0.87v-10.66H380.2z"></path> <path class="st0" d="M398.56,259.83v20.88h-2.35v-9.7h-7.98v9.7h-2.35v-20.88h2.35v8.95h7.98v-8.95H398.56z"></path> <path class="st0" d="M403.67,273.64v-6.72c0-4.89,2.79-7.56,6.99-7.56c4.19,0,6.98,2.67,6.98,7.56v6.72 c0,4.89-2.79,7.56-6.98,7.56C406.47,281.19,403.67,278.53,403.67,273.64z M415.25,273.64v-6.72c0-3.62-1.75-5.25-4.59-5.25 s-4.59,1.63-4.59,5.25v6.72c0,3.62,1.76,5.25,4.59,5.25S415.25,277.26,415.25,273.64z"></path> <path class="st0" d="M421.96,269.38h9.58v2.23h-9.58V269.38z"></path> <path class="st0" d="M449.1,280.72h-2.35v-18.65h-7.98v18.65h-2.35v-20.88h12.69V280.72z"></path> <path class="st0" d="M468.42,267.35v6.01c0,5.17-2.47,7.84-6.51,7.84c-1.87,0-3.71-0.76-4.87-2.35v9.03h-2.31v-28.04h1.91 l0.32,1.95c1.12-1.55,2.91-2.43,4.95-2.43C465.71,259.36,468.42,262.06,468.42,267.35z M466.03,267.35c0-4.1-1.72-5.81-4.63-5.81 c-2.39,0-4.35,1.83-4.35,5.73v6.09c0,3.34,1.72,5.65,4.35,5.65c3.07,0,4.63-1.67,4.63-5.65V267.35z"></path> <path class="st0" d="M473.05,273.64v-6.72c0-4.89,2.79-7.56,6.99-7.56c4.19,0,6.98,2.67,6.98,7.56v6.72 c0,4.89-2.79,7.56-6.98,7.56C475.85,281.19,473.05,278.53,473.05,273.64z M484.63,273.64v-6.72c0-3.62-1.75-5.25-4.59-5.25 s-4.59,1.63-4.59,5.25v6.72c0,3.62,1.76,5.25,4.59,5.25S484.63,277.26,484.63,273.64z"></path> <path class="st0" d="M492.13,259.83h2.35v11.93c0,1.55,0.04,3.14-0.08,4.69l0.08,0.08c0.36-0.83,1-2.27,1.4-3.1l6.71-13.61h2.43 v20.88h-2.35v-11.26c0-2.19,0.08-3.9,0.16-5.57l-0.08-0.04c-0.28,0.92-1,2.39-1.68,3.78l-6.51,13.09h-2.43V259.83z"></path> <path class="st0" d="M522.99,274.75c0,3.78-2.91,6.36-6.9,6.36c-4.35,0-6.99-2.67-7.15-6.24h2.35c0.16,2.31,1.8,3.93,4.79,3.93 c2.75,0,4.51-1.51,4.51-4.17c0-2.19-1.68-3.62-4.63-3.62h-3.03v-2.19h2.87c2.47,0,4.15-1.15,4.15-3.42c0-2.07-1.44-3.58-3.95-3.58 c-2.67,0-4.03,1.23-4.23,4.06h-2.35c0.2-4.06,2.47-6.32,6.59-6.32c3.63,0,6.31,2.59,6.31,5.65c0,2.39-1.32,3.9-2.91,4.58 C521.35,270.49,522.99,272.32,522.99,274.75z"></path> <path class="st0" d="M540.16,274.71c0,3.78-2.35,6.01-6.83,6.01h-6.11v-20.84h5.51c4.07,0,6.39,2.15,6.39,5.57 c0,1.47-0.84,3.14-2.39,4.22C538.88,270.49,540.16,272.64,540.16,274.71z M529.54,268.78h3.15c2.71,0,4.07-1.27,4.07-3.34 c0-2.11-1.35-3.34-4.07-3.34h-3.15V268.78z M537.8,274.71c0-2.35-1.48-3.7-4.51-3.7h-3.75v7.48h3.75 C536.32,278.49,537.8,277.14,537.8,274.71z"></path> <path class="st0" d="M543.99,273.64v-6.72c0-4.89,2.79-7.56,6.99-7.56c4.19,0,6.98,2.67,6.98,7.56v6.72 c0,4.89-2.79,7.56-6.98,7.56C546.78,281.19,543.99,278.53,543.99,273.64z M555.56,273.64v-6.72c0-3.62-1.75-5.25-4.59-5.25 c-2.83,0-4.59,1.63-4.59,5.25v6.72c0,3.62,1.76,5.25,4.59,5.25C553.81,278.88,555.56,277.26,555.56,273.64z"></path> <path class="st0" d="M560.07,278.49h1.52c1.12-2.11,1.79-5.45,2.07-9.43c0.2-3.1,0.32-6.13,0.36-9.23h10.85v18.66h2.32v6.8h-2.32 v-4.57h-12.49v4.57h-2.31V278.49z M572.53,278.49v-16.43h-6.27c-0.04,2.47-0.12,4.89-0.32,7.36c-0.32,4.06-0.92,7.04-1.75,9.07 H572.53z"></path> <path class="st0" d="M580.35,273.68v-6.88c0-4.77,2.67-7.44,6.71-7.44c4.15,0,6.79,2.67,6.91,7.44h-2.39 c-0.12-3.5-1.72-5.13-4.51-5.13c-2.67,0-4.31,1.63-4.31,5.13v6.88c0,3.5,1.64,5.13,4.31,5.13c2.79,0,4.43-1.63,4.55-5.13h2.39 c-0.12,4.77-2.79,7.44-6.95,7.44C583.03,281.11,580.35,278.45,580.35,273.68z"></path> <path class="st0" d="M609.1,262.02h-5.19v18.69h-2.35v-18.69h-5.19v-2.19h12.73V262.02z"></path> <path class="st0" d="M625.54,274.71c0,3.78-2.35,6.01-6.83,6.01h-6.11v-20.84h5.51c4.07,0,6.39,2.15,6.39,5.57 c0,1.47-0.84,3.14-2.4,4.22C624.26,270.49,625.54,272.64,625.54,274.71z M614.92,268.78h3.15c2.71,0,4.07-1.27,4.07-3.34 c0-2.11-1.35-3.34-4.07-3.34h-3.15V268.78z M623.19,274.71c0-2.35-1.48-3.7-4.51-3.7h-3.75v7.48h3.75 C621.71,278.49,623.19,277.14,623.19,274.71z"></path> <path class="st0" d="M643.42,274.31c-0.32,4.38-2.91,6.8-7.3,6.8c-4.07,0-6.75-2.67-6.75-7.44v-6.88c0-4.77,2.71-7.44,6.79-7.44 c4.19,0,6.99,2.67,6.99,7.44v4.61h-11.38v2.27c0,3.5,1.68,5.13,4.43,5.13c3.03,0,4.55-1.43,4.87-4.49H643.42z M631.77,266.79v2.43 h9.02v-2.43c0-3.5-1.71-5.13-4.59-5.13C633.44,261.66,631.77,263.29,631.77,266.79z"></path> <path class="st0" d="M660.91,259.83v20.88h-2.35v-9.7h-7.98v9.7h-2.35v-20.88h2.35v8.95h7.98v-8.95H660.91z"></path> <path class="st0" d="M679.23,259.83v20.88h-2.35v-9.7h-7.98v9.7h-2.35v-20.88h2.35v8.95h7.98v-8.95H679.23z"></path> <path class="st0" d="M684.34,273.64v-6.72c0-4.89,2.79-7.56,6.99-7.56s6.98,2.67,6.98,7.56v6.72c0,4.89-2.79,7.56-6.98,7.56 S684.34,278.53,684.34,273.64z M695.92,273.64v-6.72c0-3.62-1.75-5.25-4.59-5.25c-2.83,0-4.59,1.63-4.59,5.25v6.72 c0,3.62,1.76,5.25,4.59,5.25C694.16,278.88,695.92,277.26,695.92,273.64z"></path> <path class="st0" d="M716.95,274.31c-0.32,4.38-2.91,6.8-7.3,6.8c-4.07,0-6.75-2.67-6.75-7.44v-6.88c0-4.77,2.71-7.44,6.79-7.44 c4.19,0,6.99,2.67,6.99,7.44v4.61H705.3v2.27c0,3.5,1.68,5.13,4.43,5.13c3.03,0,4.55-1.43,4.87-4.49H716.95z M705.3,266.79v2.43 h9.02v-2.43c0-3.5-1.71-5.13-4.59-5.13C706.98,261.66,705.3,263.29,705.3,266.79z"></path> <path class="st0" d="M730.77,273.64v-6.72c0-4.89,2.79-7.56,6.99-7.56s6.98,2.67,6.98,7.56v6.72c0,4.89-2.79,7.56-6.98,7.56 S730.77,278.53,730.77,273.64z M742.34,273.64v-6.72c0-3.62-1.75-5.25-4.59-5.25c-2.83,0-4.59,1.63-4.59,5.25v6.72 c0,3.62,1.76,5.25,4.59,5.25C740.59,278.88,742.34,277.26,742.34,273.64z"></path> <path class="st0" d="M763.54,268.23v5.37c0,4.85-2.71,7.52-6.86,7.52c-4.11,0-6.83-2.67-6.83-7.52v-11.7 c0-5.93,4.55-7.68,6.87-8.24c1.67-0.4,2.75-0.75,3.71-2.43l1.91,1.35c-1,2.15-2.99,2.94-5.03,3.46c-2.27,0.56-5.11,1.39-5.11,5.85 v1.59c1.08-1.71,2.79-2.63,5.07-2.63C760.98,260.87,763.54,263.53,763.54,268.23z M761.14,268.66c0-3.85-1.72-5.49-4.35-5.49 c-2.27,0-4.55,1.27-4.55,5.21v5.21c0,3.58,1.68,5.21,4.43,5.21c2.79,0,4.47-1.63,4.47-5.21V268.66z"></path> <path class="st0" d="M782.74,273.91c0,3.98-3.07,6.8-6.87,6.8h-6.19v-18.69h-4.23v-2.19h6.58v7.36h3.83 C779.67,267.19,782.74,269.97,782.74,273.91z M780.35,273.91c0-2.71-1.95-4.45-4.47-4.45h-3.83v8.99h3.83 C778.39,278.45,780.35,276.66,780.35,273.91z"></path> <path class="st0" d="M799.83,274.31c-0.32,4.38-2.91,6.8-7.3,6.8c-4.07,0-6.75-2.67-6.75-7.44v-6.88c0-4.77,2.71-7.44,6.79-7.44 c4.19,0,6.99,2.67,6.99,7.44v4.61h-11.38v2.27c0,3.5,1.68,5.13,4.43,5.13c3.03,0,4.55-1.43,4.87-4.49H799.83z M788.17,266.79v2.43 h9.02v-2.43c0-3.5-1.71-5.13-4.59-5.13C789.85,261.66,788.17,263.29,788.17,266.79z"></path> <path class="st0" d="M801.99,278.49h1.52c1.12-2.11,1.79-5.45,2.07-9.43c0.2-3.1,0.32-6.13,0.36-9.23h10.85v18.66h2.32v6.8h-2.32 v-4.57H804.3v4.57h-2.31V278.49z M814.44,278.49v-16.43h-6.27c-0.04,2.47-0.12,4.89-0.32,7.36c-0.32,4.06-0.92,7.04-1.75,9.07 H814.44z"></path> <path class="st0" d="M822.78,259.83h2.35v11.93c0,1.55,0.04,3.14-0.08,4.69l0.08,0.08c0.36-0.83,1-2.27,1.4-3.1l6.71-13.61h2.43 v20.88h-2.35v-11.26c0-2.19,0.08-3.9,0.16-5.57l-0.08-0.04c-0.28,0.92-1,2.39-1.68,3.78l-6.51,13.09h-2.43V259.83z"></path> <path class="st0" d="M854.04,259.83v20.88h-2.35v-9.7h-7.98v9.7h-2.35v-20.88h2.35v8.95h7.98v-8.95H854.04z"></path> <path class="st0" d="M873.2,274.31c-0.32,4.38-2.91,6.8-7.3,6.8c-4.07,0-6.75-2.67-6.75-7.44v-6.88c0-4.77,2.71-7.44,6.79-7.44 c4.19,0,6.99,2.67,6.99,7.44v4.61h-11.38v2.27c0,3.5,1.68,5.13,4.43,5.13c3.03,0,4.55-1.43,4.87-4.49H873.2z M861.54,266.79v2.43 h9.02v-2.43c0-3.5-1.71-5.13-4.59-5.13C863.22,261.66,861.54,263.29,861.54,266.79z"></path> <path class="st0" d="M890.68,259.83v20.88h-2.35v-9.7h-7.98v9.7h-2.35v-20.88h2.35v8.95h7.98v-8.95H890.68z"></path> <path class="st0" d="M896.32,259.83h2.35v11.93c0,1.55,0.04,3.14-0.08,4.69l0.08,0.08c0.36-0.83,1-2.27,1.4-3.1l6.71-13.61h2.43 v20.88h-2.35v-11.26c0-2.19,0.08-3.9,0.16-5.57l-0.08-0.04c-0.28,0.92-1,2.39-1.68,3.78l-6.51,13.09h-2.43V259.83z"></path> <path class="st0" d="M928.41,274.31c-0.32,4.38-2.91,6.8-7.3,6.8c-4.07,0-6.75-2.67-6.75-7.44v-6.88c0-4.77,2.71-7.44,6.79-7.44 c4.19,0,6.99,2.67,6.99,7.44v4.61h-11.38v2.27c0,3.5,1.68,5.13,4.43,5.13c3.03,0,4.55-1.43,4.87-4.49H928.41z M916.75,266.79v2.43 h9.02v-2.43c0-3.5-1.71-5.13-4.59-5.13C918.43,261.66,916.75,263.29,916.75,266.79z"></path> </g> </g> </svg> 